<svg xmlns="http://www.w3.org/2000/svg" version="1.1" xmlns:xlink="http://www.w3.org/1999/xlink" xmlns:svgjs="http://svgjs.dev/svgjs" width="100%" height="100%" viewBox="0 0 1000 600"><rect width="1000" height="600" x="0" y="0" fill="#ff1d58"/><g><rect width="333.3333333333333" height="333.3333333333333" rx="13.333333333333334" ry="13.333333333333334" y="290.3790583141282" fill="#fff685" transform="matrix(0.4661451603823371,0,0,0.4661451603823371,0,86.95035125344286)" x="268.1569519042969"/><path d="M276.8920603037997 532.0457406960301L276.8920603037997 382.0457452373362L305.6122975295219 382.0457452373362Q328.32063017535194 382.0457452373362 340.8503917007706 391.5695544728088Q353.3801532261893 401.1231256121423 353.3801532261893 418.265982235993L353.3801532261893 418.265982235993Q353.3801532261893 431.539791357933 345.58253441464603 440.31955299688434Q337.755153699242 449.1290765396965 322.9634874803986 452.10526692578173L322.9634874803986 452.10526692578173L322.9634874803986 453.4147906956592Q337.1003918143033 456.18264775471846 346.1182486841414 466.6885998175992Q355.1063436501187 477.19455188047993 359.60039113310734 492.6112180804012L359.60039113310734 492.6112180804012Q363.67777196204406 506.7481224143059 367.6361051755374 514.57550312971Q371.5944383890307 522.402883845114 376.4158668144887 525.825502789112Q381.2372952399467 529.24812173311 387.90396170477754 530.7659788300134L387.90396170477754 530.7659788300134L387.90396170477754 532.0457406960301L379.0944381619654 532.0457406960301Q369.68967654193614 532.0457406960301 363.5587243466006 528.6231217520321Q357.457534055126 525.2005028080341 353.1718198991633 517.0457411501607Q348.88610574320063 508.8909794922872 345.0468201451507 494.5457418313566L345.0468201451507 494.5457418313566Q338.8265822382327 472.46240916660446 328.5289635023779 463.26598087360117Q318.261106670384 454.0397906767371 303.46944045154055 454.0397906767371L303.46944045154055 454.0397906767371L302.1896785855239 454.0397906767371L302.1896785855239 450.2005050786872L303.46944045154055 450.2005050786872Q337.96348702626796 450.2005050786872 337.96348702626796 418.474315563019L337.96348702626796 418.474315563019Q337.96348702626796 387.1945546052636 305.6122975295219 387.1945546052636L305.6122975295219 387.1945546052636L291.47539319561724 387.1945546052636L291.47539319561724 532.0457406960301L276.8920603037997 532.0457406960301ZM444.45157904039627 460.2600285836551L390.88015209086274 460.2600285836551L390.88015209086274 450.8255050597651L444.45157904039627 450.8255050597651L444.45157904039627 460.2600285836551ZM592.7551459790216 532.0457406960301L573.4694322771895 532.0457406960301L503.1718153578572 455.1112192157278L568.320622909262 382.0457452373362L586.7432413991296 382.0457452373362L516.2372911527713 449.1290765396965L592.7551459790216 532.0457406960301ZM495.46348225789654 532.0457406960301L480.8801493660791 532.0457406960301L480.8801493660791 382.0457452373362L495.46348225789654 382.0457452373362L495.46348225789654 532.0457406960301Z " fill="#0049b7" transform="matrix(0.4661451603823371,0,0,0.4661451603823371,0,86.95035125344286)"/><path d="M684.8236093366905 529.1556309372452L684.8236093366905 384.9358624505171L712.4371165965501 384.9358624505171Q734.2703871035687 384.9358624505171 746.3173161775594 394.0926731480871Q758.3642452515498 403.2780988790871 758.3642452515498 419.76035813471316L758.3642452515498 419.76035813471316Q758.3642452515498 432.52266304445135 750.8671064929144 440.96409790627376Q743.341352700849 449.434147801526 729.1196810861857 452.2956511445167L729.1196810861857 452.2956511445167L729.1196810861857 453.55471261543255Q742.7118219653912 456.21591072441385 751.3821770946527 466.3170175251708Q760.0239171904846 476.41812432592775 764.3447872384004 491.2407116426192L764.3447872384004 491.2407116426192Q768.2650468182975 504.83285252182475 772.070846264475 512.35860631389Q775.8766457106526 519.8843601059555 780.5122811262975 523.1750889503946Q785.1479165419423 526.4658177948339 791.5576840302413 527.9251844997591L791.5576840302413 527.9251844997591L791.5576840302413 529.1556309372452L783.087634134989 529.1556309372452Q774.0452835711385 529.1556309372452 768.1505866845778 525.8649020928059Q762.2845048314471 522.5741732483667 758.1639400175405 514.7336540885724Q754.043375203634 506.893134928778 750.3520358911761 493.1006888155631L750.3520358911761 493.1006888155631Q744.3714939043257 471.86833401057265 734.4706923375782 463.02628868073157Q724.5985058042604 454.1556283174606 710.3768341895969 454.1556283174606L710.3768341895969 454.1556283174606L709.146387752111 454.1556283174606L709.146387752111 450.4642890050027L710.3768341895969 450.4642890050027Q743.5416579348584 450.4642890050027 743.5416579348584 419.9606633687225L743.5416579348584 419.9606633687225Q743.5416579348584 389.8862632338909 712.4371165965501 389.8862632338909L712.4371165965501 389.8862632338909L698.8449757173446 389.8862632338909L698.8449757173446 529.1556309372452L684.8236093366905 529.1556309372452ZM816.8819886157085 529.1556309372452L801.8590960650076 529.1556309372452L857.2578007853062 384.9358624505171L870.0487207284743 384.9358624505171L925.476040482203 529.1556309372452L910.4245328980724 529.1556309372452L884.871308045166 461.56692197580634L838.114343420699 461.56692197580634L816.8819886157085 529.1556309372452ZM859.9476139277174 395.6378849533021L858.7171674902315 395.6378849533021L839.5450950921943 456.6451362258624L883.0113308722221 456.6451362258624L859.9476139277174 395.6378849533021ZM993.4653599116605 529.1556309372452L979.4439935310063 529.1556309372452L979.4439935310063 389.05642726442363Q976.3535699205765 389.05642726442363 966.6816886212682 390.2868737019096L966.6816886212682 390.2868737019096L926.2772614182404 395.4375797192928L926.2772614182404 384.9358624505171L1046.6034769909966 384.9358624505171L1046.6034769909966 395.4375797192928L1006.2276648213988 390.2868737019096Q996.5557835220905 389.05642726442363 993.4653599116605 389.05642726442363L993.4653599116605 389.05642726442363L993.4653599116605 529.1556309372452ZM1143.4367501177996 529.1556309372452L1079.9972210036974 529.1556309372452L1079.9972210036974 384.9358624505171L1142.8358344157716 384.9358624505171L1142.8358344157716 395.03696925127406L1106.7808922940897 390.2868737019096Q1097.2807011953607 389.05642726442363 1093.9899723509216 389.05642726442363L1093.9899723509216 389.05642726442363L1093.9899723509216 451.89504067649796Q1096.6797854933327 451.89504067649796 1106.7808922940897 451.26550994104L1106.7808922940897 451.26550994104L1140.5466317413793 449.2052275340868L1140.5466317413793 458.7054186328157L1106.7808922940897 456.6451362258624Q1096.6797854933327 456.0156054904045 1093.9899723509216 456.0156054904045L1093.9899723509216 456.0156054904045L1093.9899723509216 525.0350661233387Q1097.7099266968094 525.0350661233387 1106.981197528099 523.8046196858527L1106.981197528099 523.8046196858527L1143.4367501177996 519.0545241364882L1143.4367501177996 529.1556309372452ZM1220.0964246765188 529.1556309372452L1186.7026806638182 529.1556309372452L1186.7026806638182 384.9358624505171L1215.3463291271544 384.9358624505171Q1237.6088251356216 384.9358624505171 1249.970519577341 394.2071332818068Q1262.3322140190608 403.4784041130964 1262.3322140190608 419.9606633687225L1262.3322140190608 419.9606633687225Q1262.3322140190608 432.1220525764327 1255.1212255947241 440.6779475719747Q1247.9102371703877 449.2052275340868 1234.9190119932102 452.2956511445167L1234.9190119932102 452.2956511445167L1234.9190119932102 453.55471261543255Q1252.6317176863224 455.8153002563952 1262.6183643533598 465.80194692343247Q1272.633626053827 475.78859359046976 1272.633626053827 491.0404064086099L1272.633626053827 491.0404064086099Q1272.633626053827 508.9534173357313 1258.8125649071821 519.0545241364882Q1245.0201187939672 529.1556309372452 1220.0964246765188 529.1556309372452L1220.0964246765188 529.1556309372452ZM1215.5466343611638 389.8862632338909L1215.5466343611638 389.8862632338909L1200.7240470444722 389.8862632338909L1200.7240470444722 451.69473544248865L1215.3463291271544 451.69473544248865Q1247.9102371703877 451.69473544248865 1247.9102371703877 420.79049933818976L1247.9102371703877 420.79049933818976Q1247.9102371703877 389.8862632338909 1215.5466343611638 389.8862632338909ZM1220.0964246765188 456.6451362258624L1220.0964246765188 456.6451362258624L1200.7240470444722 456.6451362258624L1200.7240470444722 524.2052301538713L1220.0964246765188 524.2052301538713Q1257.7824237037055 524.2052301538713 1257.7824237037055 490.41087567315196L1257.7824237037055 490.41087567315196Q1257.7824237037055 456.6451362258624 1220.0964246765188 456.6451362258624ZM1346.8037927041441 460.136170304311L1295.2967325303127 460.136170304311L1295.2967325303127 451.0652047070307L1346.8037927041441 451.0652047070307L1346.8037927041441 460.136170304311ZM1489.3638892519377 529.1556309372452L1470.8213475893583 529.1556309372452L1403.2326386279196 455.18576952093724L1465.8709468059844 384.9358624505171L1483.5836524990966 384.9358624505171L1415.8232533370783 449.434147801526L1489.3638892519377 529.1556309372452ZM1395.8213449695738 529.1556309372452L1381.8285936223494 529.1556309372452L1381.8285936223494 384.9358624505171L1395.8213449695738 384.9358624505171L1395.8213449695738 529.1556309372452ZM1501.7255836936572 457.04574669388114L1501.7255836936572 457.04574669388114Q1501.7255836936572 441.193018173713 1507.3913603127787 427.4864171607879Q1513.0571369319002 413.77981614786273 1523.2440888329468 403.592864246816Q1533.4596557674233 393.37729731233946 1547.1662567803485 387.71152069321806Q1560.8442427598436 382.04574407409655 1576.7255863134417 382.04574407409655L1576.7255863134417 382.04574407409655Q1592.5783148336097 382.04574407409655 1606.284915846535 387.71152069321806Q1619.9915168594603 393.37729731233946 1630.178468760507 403.592864246816Q1640.3940356949836 413.77981614786273 1646.0598123141046 427.4864171607879Q1651.7255889332262 441.193018173713 1651.7255889332262 457.04574669388114L1651.7255889332262 457.04574669388114Q1651.7255889332262 472.89847521404926 1646.0598123141046 486.6050762269744Q1640.3940356949836 500.31167723989955 1630.178468760507 510.4986291409462Q1619.9915168594603 520.7141960754227 1606.284915846535 526.3799726945442Q1592.5783148336097 532.0457493136657 1576.7255863134417 532.0457493136657L1576.7255863134417 532.0457493136657Q1560.8442427598436 532.0457493136657 1547.1662567803485 526.3799726945442Q1533.4596557674233 520.7141960754227 1523.2440888329468 510.4986291409462Q1513.0571369319002 500.31167723989955 1507.3913603127787 486.6050762269744Q1501.7255836936572 472.89847521404926 1501.7255836936572 457.04574669388114ZM1517.378006979816 457.04574669388114L1517.378006979816 457.04574669388114Q1517.378006979816 478.0491812314324 1524.7893006381616 493.8160646513108Q1532.2292093299372 509.5829480711892 1545.6210449751336 518.3391483007406Q1559.0128806203297 527.0953485302919 1576.7255863134417 527.0953485302919L1576.7255863134417 527.0953485302919Q1594.4382920065539 527.0953485302919 1607.83012765175 518.3391483007406Q1621.2219632969461 509.5829480711892 1628.633256955292 493.7302195510211Q1636.0445506136375 477.8488759974231 1636.0445506136375 457.04574669388114L1636.0445506136375 457.04574669388114Q1636.0445506136375 436.2426173903392 1628.633256955292 420.4757339704608Q1621.2219632969461 404.7088505505824 1607.83012765175 395.86680522074136Q1594.4382920065539 386.99614485747037 1576.7255863134417 386.99614485747037L1576.7255863134417 386.99614485747037Q1559.0128806203297 386.99614485747037 1545.7068900754232 395.7523450870217Q1532.429514563947 404.5085453165731 1524.9037607718815 420.2754287364515Q1517.378006979816 436.04231215632984 1517.378006979816 457.04574669388114ZM1708.984270826469 529.1556309372452L1694.9915194792447 529.1556309372452L1694.9915194792447 384.9358624505171L1708.984270826469 384.9358624505171L1708.984270826469 451.69473544248865L1795.5161319185056 451.69473544248865L1795.5161319185056 384.9358624505171L1809.53749829916 384.9358624505171L1809.53749829916 529.1556309372452L1795.5161319185056 529.1556309372452L1795.5161319185056 456.6451362258624L1708.984270826469 456.6451362258624L1708.984270826469 529.1556309372452ZM1877.097592227169 529.1556309372452L1863.1048408799445 529.1556309372452L1863.1048408799445 384.9358624505171L1877.097592227169 384.9358624505171L1877.097592227169 529.1556309372452Z " fill="#00ddff" transform="matrix(0.4661451603823371,0,0,0.4661451603823371,0,86.95035125344286)"/></g></svg>